<svg width="197" height="51" viewBox="0 0 197 51" fill="none" xmlns="http://www.w3.org/2000/svg">
<rect width="197" height="40" rx="12" fill="#346FFA"/>
<path d="M20.8675 23.635H25.4565V21.581H22.1415V17.954H28.8235V16.303H22.1155V15.341H30.0065V18.89H23.3115V20.619H30.2665V21.581H26.6395V23.635H31.2545V24.61H20.8675V23.635ZM33.1528 15.692H41.0438V16.888C41.0438 18.383 41.0438 20.008 40.6148 22.452L39.4188 22.348C39.8608 20.047 39.8608 18.357 39.8608 16.888V16.654H33.1528V15.692ZM32.0348 24.363V23.375H42.4088V24.363H32.0348ZM51.4311 14.535H52.6271V22.868H51.4311V14.535ZM43.4361 18.162C43.4361 16.485 44.7491 15.315 46.4521 15.315C48.1681 15.315 49.4681 16.485 49.4681 18.162C49.4681 19.813 48.1681 20.996 46.4521 20.996C44.7491 20.996 43.4361 19.813 43.4361 18.162ZM44.5931 18.162C44.5931 19.228 45.3991 19.956 46.4521 19.956C47.5181 19.956 48.3241 19.228 48.3241 18.162C48.3241 17.07 47.5181 16.342 46.4521 16.342C45.3991 16.342 44.5931 17.07 44.5931 18.162ZM45.2041 25.754V22.023H46.3871V24.779H52.9651V25.754H45.2041ZM62.1044 14.535H63.3004V18.24H64.9514V19.228H63.3004V23.128H62.1044V14.535ZM54.3954 16.823V15.874H57.1904V14.535H58.3734V15.874H61.1684V16.823H54.3954ZM55.0194 19.566C55.0194 18.266 56.1504 17.408 57.7754 17.408C59.4134 17.408 60.5444 18.266 60.5444 19.566C60.5444 20.866 59.4134 21.711 57.7754 21.711C56.1504 21.711 55.0194 20.866 55.0194 19.566ZM56.1114 25.754V22.452H57.2814V24.779H63.7944V25.754H56.1114ZM56.1504 19.566C56.1504 20.32 56.8134 20.801 57.7754 20.801C58.7504 20.801 59.4004 20.32 59.4004 19.566C59.4004 18.799 58.7504 18.331 57.7754 18.331C56.8134 18.331 56.1504 18.799 56.1504 19.566ZM72.6928 20.554H74.6558V18.643H72.8748C72.3418 20.567 71.1198 22.257 68.9748 23.544L68.2858 22.699C70.6908 21.243 71.8608 19.293 72.0688 16.927H68.8188V15.965H73.2258C73.2258 16.55 73.1868 17.122 73.0958 17.681H74.6558V14.808H75.7738V25.416H74.6558V21.503H72.6928V20.554ZM76.9698 25.988V14.522H78.1008V25.988H76.9698ZM85.6281 17.46H87.7861V14.535H88.9691V21.347H87.7861V18.435H85.6281V17.46ZM79.5181 20.333C81.2601 19.709 82.3651 18.175 82.3651 16.563V16.303H79.8691V15.328H86.0051V16.303H83.5481V16.563C83.5481 18.019 84.5881 19.436 86.2911 20.021L85.6931 20.957C84.4191 20.502 83.4831 19.579 82.9891 18.448C82.4951 19.735 81.4811 20.775 80.1161 21.282L79.5181 20.333ZM81.3251 23.843C81.3251 22.491 82.7811 21.685 85.1731 21.685C87.5521 21.685 89.0081 22.491 89.0081 23.843C89.0081 25.208 87.5521 25.988 85.1731 25.988C82.7811 25.988 81.3251 25.208 81.3251 23.843ZM82.5081 23.843C82.5081 24.623 83.4961 25.078 85.1731 25.078C86.8371 25.078 87.8381 24.623 87.8381 23.843C87.8381 23.05 86.8371 22.595 85.1731 22.595C83.4961 22.595 82.5081 23.05 82.5081 23.843ZM90.6724 20.515H101.033V21.477H90.6724V20.515ZM91.7904 17.213C91.7904 15.77 93.3894 14.899 95.8464 14.899C98.3164 14.899 99.9154 15.77 99.9154 17.213C99.9154 18.656 98.3164 19.514 95.8464 19.514C93.3894 19.514 91.7904 18.656 91.7904 17.213ZM91.9984 25.767V22.426H93.1814V24.792H99.8764V25.767H91.9984ZM93.0124 17.213C93.0124 18.058 94.1174 18.565 95.8464 18.565C97.6014 18.565 98.6934 18.058 98.6934 17.213C98.6934 16.355 97.6014 15.874 95.8464 15.874C94.1174 15.874 93.0124 16.355 93.0124 17.213ZM110.218 15.562L114.105 25.052H112.87L111.778 22.387H107.319L106.201 25.052H104.966L108.918 15.562H110.218ZM107.722 21.386H111.362L109.568 16.992L107.722 21.386ZM118.728 24.155C119.976 24.155 120.834 23.154 120.834 21.724C120.834 20.307 119.976 19.319 118.728 19.319C117.584 19.319 116.609 20.411 116.609 21.724C116.609 23.063 117.584 24.155 118.728 24.155ZM115.452 28.016V18.331H116.596V19.631C117.064 18.734 118.091 18.344 118.78 18.344C120.665 18.344 121.978 19.735 121.978 21.724C121.978 23.726 120.665 25.13 118.78 25.13C118.065 25.13 117.064 24.675 116.596 23.83V28.016H115.452ZM126.455 24.155C127.703 24.155 128.561 23.154 128.561 21.724C128.561 20.307 127.703 19.319 126.455 19.319C125.311 19.319 124.336 20.411 124.336 21.724C124.336 23.063 125.311 24.155 126.455 24.155ZM123.179 28.016V18.331H124.323V19.631C124.791 18.734 125.818 18.344 126.507 18.344C128.392 18.344 129.705 19.735 129.705 21.724C129.705 23.726 128.392 25.13 126.507 25.13C125.792 25.13 124.791 24.675 124.323 23.83V28.016H123.179ZM130.724 15.536H131.868V25.052H130.724V15.536ZM137.996 21.256C137.892 20.294 137.411 19.293 136.098 19.293C135.019 19.293 134.174 20.125 134.018 21.269L137.996 21.256ZM132.887 21.698C132.887 19.709 134.2 18.318 136.072 18.318C138.165 18.318 138.776 19.995 138.828 20.138C139.231 21.152 139.088 22.127 139.088 22.192H134.018C134.174 23.323 135.058 24.103 136.085 24.103C137.489 24.103 137.905 23.245 137.983 23.141L138.893 23.609C138.893 23.609 138.282 25.078 136.072 25.078C134.2 25.078 132.887 23.687 132.887 21.698ZM148.305 14.509H149.488V26.014H148.305V14.509ZM140.479 19.41C140.479 16.94 141.701 15.393 143.417 15.393C145.12 15.393 146.355 16.94 146.355 19.41C146.355 21.867 145.12 23.44 143.417 23.44C141.701 23.44 140.479 21.867 140.479 19.41ZM141.623 19.41C141.623 21.23 142.364 22.374 143.417 22.374C144.47 22.374 145.211 21.23 145.211 19.41C145.211 17.59 144.47 16.459 143.417 16.459C142.364 16.459 141.623 17.59 141.623 19.41ZM159.888 14.522H161.019V25.988H159.888V14.522ZM151.386 19.475C151.386 16.992 152.348 15.445 153.83 15.445C155.208 15.445 156.144 16.771 156.274 18.929H157.587V14.769H158.705V25.429H157.587V19.904H156.274C156.17 22.153 155.234 23.518 153.83 23.518C152.348 23.518 151.386 21.971 151.386 19.475ZM152.465 19.475C152.465 21.321 152.985 22.4 153.83 22.4C154.688 22.4 155.208 21.321 155.208 19.475C155.208 17.642 154.688 16.563 153.83 16.563C152.985 16.563 152.465 17.642 152.465 19.475ZM162.423 23.57H164.919V20.541C163.983 20.034 163.411 19.215 163.411 18.188C163.411 16.381 165.179 15.211 167.597 15.211C170.054 15.211 171.796 16.381 171.796 18.188C171.796 19.202 171.25 20.008 170.327 20.528V23.57H172.81V24.545H162.423V23.57ZM164.568 18.188C164.568 19.436 165.829 20.229 167.597 20.229C169.378 20.229 170.639 19.436 170.639 18.188C170.639 16.94 169.378 16.147 167.597 16.147C165.829 16.147 164.568 16.94 164.568 18.188ZM166.089 23.57H169.131V20.983C168.663 21.1 168.143 21.152 167.597 21.152C167.064 21.152 166.557 21.1 166.089 20.983V23.57ZM174.592 23.791C175.021 23.791 175.307 24.077 175.307 24.506C175.307 24.935 175.021 25.234 174.592 25.234C174.163 25.234 173.864 24.935 173.864 24.506C173.864 24.077 174.163 23.791 174.592 23.791Z" fill="#E4E4E5"/>
<path d="M99.366 49.5C98.9811 50.1667 98.0189 50.1667 97.634 49.5L88.9737 34.5C88.5888 33.8333 89.0699 33 89.8397 33L107.16 33C107.93 33 108.411 33.8333 108.026 34.5L99.366 49.5Z" fill="#346FFA"/>
</svg>
