<svg width="21" height="20" viewBox="0 0 21 20" fill="none" xmlns="http://www.w3.org/2000/svg">
<path d="M7.96298 18.289C9.03026 18.289 9.49837 17.5494 10.8278 17.5494C12.1572 17.5494 12.4755 18.261 13.6552 18.261C14.8348 18.261 15.5931 17.1562 16.3327 16.0702C17.1566 14.825 17.4936 13.608 17.5217 13.5518C17.4468 13.5331 15.2186 12.5875 15.2186 9.95674C15.2186 7.67238 16.9787 6.64254 17.0723 6.56764C15.9114 4.84501 14.142 4.80756 13.6645 4.80756C12.3632 4.80756 11.2959 5.62207 10.6218 5.62207C9.90094 5.62207 8.946 4.85437 7.81318 4.85437C5.65989 4.85437 3.47852 6.68935 3.47852 10.144C3.47852 12.2879 4.29302 14.5629 5.28541 16.0328C6.13736 17.2779 6.88633 18.2984 7.96298 18.2984V18.289ZM10.7061 4.60159C11.4831 4.60159 12.4662 4.05859 13.0466 3.33771C13.5709 2.68236 13.9547 1.76487 13.9547 0.847376C13.9547 0.725668 13.9454 0.594598 13.9173 0.500977C13.0466 0.538425 12.0074 1.10015 11.3802 1.85849C10.884 2.43894 10.4346 3.33771 10.4346 4.26456C10.4346 4.39563 10.4533 4.53606 10.472 4.58287C10.5282 4.59223 10.6125 4.60159 10.7061 4.60159Z" fill="black"/>
</svg>
