<svg width="21" height="20" viewBox="0 0 21 20" fill="none" xmlns="http://www.w3.org/2000/svg">
<path fill-rule="evenodd" clip-rule="evenodd" d="M18.42 10.1866C18.42 9.60177 18.3677 9.03894 18.2697 8.49902H10.5V11.6899H14.9403C14.7487 12.7212 14.1676 13.5957 13.294 14.1805V16.2504H15.9597C17.5198 14.8139 18.42 12.6992 18.42 10.1866Z" fill="#3D82F0"/>
<path fill-rule="evenodd" clip-rule="evenodd" d="M10.5002 18.2489C12.7277 18.2489 14.5949 17.5101 15.9599 16.2506L13.2942 14.1798C12.5554 14.6748 11.6103 14.9672 10.5002 14.9672C8.35152 14.9672 6.53286 13.5162 5.88386 11.5664H3.12744V13.7041C4.48502 16.4 7.27536 18.2489 10.5002 18.2489Z" fill="#31A752"/>
<path fill-rule="evenodd" clip-rule="evenodd" d="M5.88367 11.5676C5.71867 11.0726 5.62517 10.5437 5.62517 10.0001C5.62517 9.45651 5.71867 8.92759 5.88367 8.43259V6.29492H3.12725C2.569 7.40867 2.25 8.66909 2.25 10.0001C2.25 11.3311 2.569 12.5915 3.12725 13.7053L5.88367 11.5676Z" fill="#F9BA00"/>
<path fill-rule="evenodd" clip-rule="evenodd" d="M10.5002 5.03069C11.7111 5.03069 12.7992 5.44686 13.6535 6.26452L16.0204 3.89861C14.5913 2.56669 12.724 1.74902 10.5002 1.74902C7.27536 1.74902 4.48502 3.59794 3.12744 6.29477L5.88386 8.43152C6.53286 6.48177 8.35152 5.03069 10.5002 5.03069Z" fill="#E64234"/>
</svg>
