<svg width="205" height="51" viewBox="0 0 205 51" fill="none" xmlns="http://www.w3.org/2000/svg">
<rect x="0.5" width="204" height="40" rx="12" fill="#346FFA"/>
<path d="M21.2897 23.635H25.8787V21.581H22.5637V17.954H29.2457V16.303H22.5377V15.341H30.4287V18.89H23.7337V20.619H30.6887V21.581H27.0617V23.635H31.6767V24.61H21.2897V23.635ZM33.575 15.692H41.466V16.888C41.466 18.383 41.466 20.008 41.037 22.452L39.841 22.348C40.283 20.047 40.283 18.357 40.283 16.888V16.654H33.575V15.692ZM32.457 24.363V23.375H42.831V24.363H32.457ZM51.8533 14.535H53.0493V22.868H51.8533V14.535ZM43.8583 18.162C43.8583 16.485 45.1713 15.315 46.8743 15.315C48.5903 15.315 49.8903 16.485 49.8903 18.162C49.8903 19.813 48.5903 20.996 46.8743 20.996C45.1713 20.996 43.8583 19.813 43.8583 18.162ZM45.0153 18.162C45.0153 19.228 45.8213 19.956 46.8743 19.956C47.9403 19.956 48.7463 19.228 48.7463 18.162C48.7463 17.07 47.9403 16.342 46.8743 16.342C45.8213 16.342 45.0153 17.07 45.0153 18.162ZM45.6263 25.754V22.023H46.8093V24.779H53.3873V25.754H45.6263ZM62.5266 14.535H63.7226V18.24H65.3736V19.228H63.7226V23.128H62.5266V14.535ZM54.8176 16.823V15.874H57.6126V14.535H58.7956V15.874H61.5906V16.823H54.8176ZM55.4416 19.566C55.4416 18.266 56.5726 17.408 58.1976 17.408C59.8356 17.408 60.9666 18.266 60.9666 19.566C60.9666 20.866 59.8356 21.711 58.1976 21.711C56.5726 21.711 55.4416 20.866 55.4416 19.566ZM56.5336 25.754V22.452H57.7036V24.779H64.2166V25.754H56.5336ZM56.5726 19.566C56.5726 20.32 57.2356 20.801 58.1976 20.801C59.1726 20.801 59.8226 20.32 59.8226 19.566C59.8226 18.799 59.1726 18.331 58.1976 18.331C57.2356 18.331 56.5726 18.799 56.5726 19.566ZM73.115 20.554H75.078V18.643H73.297C72.764 20.567 71.542 22.257 69.397 23.544L68.708 22.699C71.113 21.243 72.283 19.293 72.491 16.927H69.241V15.965H73.648C73.648 16.55 73.609 17.122 73.518 17.681H75.078V14.808H76.196V25.416H75.078V21.503H73.115V20.554ZM77.392 25.988V14.522H78.523V25.988H77.392ZM86.0503 17.46H88.2083V14.535H89.3913V21.347H88.2083V18.435H86.0503V17.46ZM79.9403 20.333C81.6823 19.709 82.7873 18.175 82.7873 16.563V16.303H80.2913V15.328H86.4273V16.303H83.9703V16.563C83.9703 18.019 85.0103 19.436 86.7133 20.021L86.1153 20.957C84.8413 20.502 83.9053 19.579 83.4113 18.448C82.9173 19.735 81.9033 20.775 80.5383 21.282L79.9403 20.333ZM81.7473 23.843C81.7473 22.491 83.2033 21.685 85.5953 21.685C87.9743 21.685 89.4303 22.491 89.4303 23.843C89.4303 25.208 87.9743 25.988 85.5953 25.988C83.2033 25.988 81.7473 25.208 81.7473 23.843ZM82.9303 23.843C82.9303 24.623 83.9183 25.078 85.5953 25.078C87.2593 25.078 88.2603 24.623 88.2603 23.843C88.2603 23.05 87.2593 22.595 85.5953 22.595C83.9183 22.595 82.9303 23.05 82.9303 23.843ZM91.0946 20.515H101.456V21.477H91.0946V20.515ZM92.2126 17.213C92.2126 15.77 93.8116 14.899 96.2686 14.899C98.7386 14.899 100.338 15.77 100.338 17.213C100.338 18.656 98.7386 19.514 96.2686 19.514C93.8116 19.514 92.2126 18.656 92.2126 17.213ZM92.4206 25.767V22.426H93.6036V24.792H100.299V25.767H92.4206ZM93.4346 17.213C93.4346 18.058 94.5396 18.565 96.2686 18.565C98.0236 18.565 99.1156 18.058 99.1156 17.213C99.1156 16.355 98.0236 15.874 96.2686 15.874C94.5396 15.874 93.4346 16.355 93.4346 17.213ZM114.696 20.112C114.748 20.437 114.683 21.035 114.683 21.035C114.436 23.713 112.759 25.104 110.224 25.156C107.468 25.156 105.531 23.154 105.531 20.307C105.531 17.473 107.468 15.471 110.224 15.471C113.175 15.471 114.202 17.759 114.202 17.759L113.201 18.24C113.201 18.24 112.447 16.485 110.224 16.485C108.118 16.485 106.675 18.045 106.675 20.307C106.675 22.582 108.118 24.142 110.224 24.142C112.096 24.077 113.383 23.115 113.539 21.087H110.406V20.112H114.696ZM118.95 24.116C120.172 24.116 121.03 23.128 121.03 21.698C121.03 20.281 120.172 19.293 118.95 19.293C117.728 19.293 116.883 20.281 116.883 21.698C116.883 23.128 117.728 24.116 118.95 24.116ZM115.739 21.698C115.739 19.709 117.065 18.305 118.95 18.305C120.848 18.305 122.174 19.709 122.174 21.698C122.174 23.687 120.848 25.091 118.95 25.091C117.065 25.091 115.739 23.687 115.739 21.698ZM126.284 24.116C127.506 24.116 128.364 23.128 128.364 21.698C128.364 20.281 127.506 19.293 126.284 19.293C125.062 19.293 124.217 20.281 124.217 21.698C124.217 23.128 125.062 24.116 126.284 24.116ZM123.073 21.698C123.073 19.709 124.399 18.305 126.284 18.305C128.182 18.305 129.508 19.709 129.508 21.698C129.508 23.687 128.182 25.091 126.284 25.091C124.399 25.091 123.073 23.687 123.073 21.698ZM133.643 24.142C134.839 24.142 135.749 23.037 135.749 21.737C135.749 20.463 134.826 19.358 133.643 19.358C132.408 19.358 131.55 20.333 131.55 21.737C131.55 23.154 132.408 24.142 133.643 24.142ZM130.406 21.737C130.406 19.761 131.719 18.383 133.591 18.383C134.475 18.383 135.32 18.825 135.749 19.644V18.331H136.893V24.701C136.88 26.638 135.58 28.003 133.565 28.003C132.473 28.003 131.42 27.548 130.757 26.508L131.667 25.923C132.161 26.651 132.811 27.002 133.565 27.002C134.917 27.002 135.749 26.066 135.749 24.753V23.804C135.255 24.623 134.358 25.117 133.591 25.117C131.719 25.117 130.406 23.726 130.406 21.737ZM138.301 15.536H139.445V25.052H138.301V15.536ZM145.573 21.256C145.469 20.294 144.988 19.293 143.675 19.293C142.596 19.293 141.751 20.125 141.595 21.269L145.573 21.256ZM140.464 21.698C140.464 19.709 141.777 18.318 143.649 18.318C145.742 18.318 146.353 19.995 146.405 20.138C146.808 21.152 146.665 22.127 146.665 22.192H141.595C141.751 23.323 142.635 24.103 143.662 24.103C145.066 24.103 145.482 23.245 145.56 23.141L146.47 23.609C146.47 23.609 145.859 25.078 143.649 25.078C141.777 25.078 140.464 23.687 140.464 21.698ZM155.882 14.509H157.065V26.014H155.882V14.509ZM148.056 19.41C148.056 16.94 149.278 15.393 150.994 15.393C152.697 15.393 153.932 16.94 153.932 19.41C153.932 21.867 152.697 23.44 150.994 23.44C149.278 23.44 148.056 21.867 148.056 19.41ZM149.2 19.41C149.2 21.23 149.941 22.374 150.994 22.374C152.047 22.374 152.788 21.23 152.788 19.41C152.788 17.59 152.047 16.459 150.994 16.459C149.941 16.459 149.2 17.59 149.2 19.41ZM167.466 14.522H168.597V25.988H167.466V14.522ZM158.964 19.475C158.964 16.992 159.926 15.445 161.408 15.445C162.786 15.445 163.722 16.771 163.852 18.929H165.165V14.769H166.283V25.429H165.165V19.904H163.852C163.748 22.153 162.812 23.518 161.408 23.518C159.926 23.518 158.964 21.971 158.964 19.475ZM160.043 19.475C160.043 21.321 160.563 22.4 161.408 22.4C162.266 22.4 162.786 21.321 162.786 19.475C162.786 17.642 162.266 16.563 161.408 16.563C160.563 16.563 160.043 17.642 160.043 19.475ZM170.001 23.57H172.497V20.541C171.561 20.034 170.989 19.215 170.989 18.188C170.989 16.381 172.757 15.211 175.175 15.211C177.632 15.211 179.374 16.381 179.374 18.188C179.374 19.202 178.828 20.008 177.905 20.528V23.57H180.388V24.545H170.001V23.57ZM172.146 18.188C172.146 19.436 173.407 20.229 175.175 20.229C176.956 20.229 178.217 19.436 178.217 18.188C178.217 16.94 176.956 16.147 175.175 16.147C173.407 16.147 172.146 16.94 172.146 18.188ZM173.667 23.57H176.709V20.983C176.241 21.1 175.721 21.152 175.175 21.152C174.642 21.152 174.135 21.1 173.667 20.983V23.57ZM182.169 23.791C182.598 23.791 182.884 24.077 182.884 24.506C182.884 24.935 182.598 25.234 182.169 25.234C181.74 25.234 181.441 24.935 181.441 24.506C181.441 24.077 181.74 23.791 182.169 23.791Z" fill="#E4E4E5"/>
<path d="M103.366 49.5C102.981 50.1667 102.019 50.1667 101.634 49.5L92.9737 34.5C92.5888 33.8333 93.0699 33 93.8397 33L111.16 33C111.93 33 112.411 33.8333 112.026 34.5L103.366 49.5Z" fill="#346FFA"/>
</svg>
