<svg width="209" height="51" viewBox="0 0 209 51" fill="none" xmlns="http://www.w3.org/2000/svg">
<rect width="209" height="40" rx="12" fill="#346FFA"/>
<path d="M25.1714 20.606V22.647C26.4194 22.569 27.4637 22.465 28.3044 22.335L28.3954 23.167C27.2687 23.375 26.1161 23.5093 24.9374 23.57C23.7674 23.6307 22.4631 23.661 21.0244 23.661L20.8814 22.725C22.2247 22.725 23.2777 22.712 24.0404 22.686V20.606H25.1714ZM24.0404 16.004V14.626H25.1714V16.004H27.7714V16.927H25.1714C25.1974 17.629 25.4661 18.2573 25.9774 18.812C26.4974 19.3667 27.1777 19.761 28.0184 19.995L27.5114 20.866C26.8354 20.6667 26.2461 20.3633 25.7434 19.956C25.2494 19.5487 24.8724 19.0633 24.6124 18.5C24.3611 19.0893 23.9884 19.6007 23.4944 20.034C23.0004 20.4587 22.4111 20.7793 21.7264 20.996L21.2064 20.112C22.0471 19.8607 22.7231 19.449 23.2344 18.877C23.7457 18.305 24.0144 17.655 24.0404 16.927H21.4794V16.004H24.0404ZM30.1634 14.522V26.001H29.0454V14.522H30.1634ZM41.0447 15.224V16.121C41.0447 16.797 41.0274 17.408 40.9927 17.954C40.9667 18.4913 40.8887 19.098 40.7587 19.774H42.3577V20.697H31.9967V19.774H39.6277C39.7664 19.0893 39.853 18.4827 39.8877 17.954C39.9224 17.4167 39.9397 16.81 39.9397 16.134H33.3227V15.224H41.0447ZM34.4797 21.932V24.818H41.3827V25.741H33.3487V21.932H34.4797ZM50.5671 23.661V21.568H47.2521V17.98H53.9471V16.277H47.2261V15.367H55.0651V18.877H48.3571V20.658H55.3251V21.568H51.6851V23.661H56.3261V24.584H45.9651V23.661H50.5671ZM66.1024 15.718V16.901C66.1024 17.9063 66.0764 18.812 66.0244 19.618C65.9811 20.424 65.8641 21.3687 65.6734 22.452L64.5424 22.348C64.7418 21.3253 64.8631 20.4153 64.9064 19.618C64.9584 18.812 64.9844 17.9063 64.9844 16.901V16.641H58.2504V15.718H66.1024ZM67.4804 23.401V24.337H57.1324V23.401H67.4804ZM77.6857 14.548V22.881H76.5547V14.548H77.6857ZM71.4327 22.036V24.818H78.0237V25.728H70.3147V22.036H71.4327ZM71.5367 15.328C72.1001 15.328 72.6114 15.4493 73.0707 15.692C73.5301 15.9347 73.8897 16.2727 74.1497 16.706C74.4097 17.1307 74.5397 17.616 74.5397 18.162C74.5397 18.6993 74.4097 19.1847 74.1497 19.618C73.8897 20.0427 73.5301 20.3763 73.0707 20.619C72.6114 20.8617 72.1001 20.983 71.5367 20.983C70.9734 20.983 70.4621 20.8617 70.0027 20.619C69.5521 20.3763 69.1924 20.0427 68.9237 19.618C68.6637 19.1847 68.5337 18.6993 68.5337 18.162C68.5337 17.616 68.6637 17.1307 68.9237 16.706C69.1924 16.2727 69.5521 15.9347 70.0027 15.692C70.4621 15.4493 70.9734 15.328 71.5367 15.328ZM71.5367 16.303C70.9907 16.303 70.5357 16.4763 70.1717 16.823C69.8164 17.1697 69.6387 17.616 69.6387 18.162C69.6387 18.6993 69.8164 19.1413 70.1717 19.488C70.5357 19.826 70.9907 19.995 71.5367 19.995C72.0827 19.995 72.5377 19.826 72.9017 19.488C73.2657 19.1413 73.4477 18.6993 73.4477 18.162C73.4477 17.616 73.2657 17.1697 72.9017 16.823C72.5377 16.4763 72.0827 16.303 71.5367 16.303ZM88.6121 20.567V18.617H86.8051C86.2245 20.6797 84.9158 22.3177 82.8791 23.531L82.2291 22.712C84.5691 21.3167 85.8388 19.3797 86.0381 16.901H82.7491V15.978H87.1431C87.1431 16.6193 87.0955 17.1957 87.0001 17.707H88.6121V14.834H89.6781V25.403H88.6121V21.477H86.6101V20.567H88.6121ZM91.9921 14.535V25.975H90.9261V14.535H91.9921ZM101.729 17.486V14.548H102.86V21.347H101.729V18.409H99.5324V17.486H101.729ZM99.0774 21.685C100.265 21.685 101.196 21.8757 101.872 22.257C102.557 22.6383 102.899 23.167 102.899 23.843C102.899 24.519 102.557 25.0433 101.872 25.416C101.196 25.7887 100.265 25.975 99.0774 25.975C97.8814 25.975 96.9454 25.7887 96.2694 25.416C95.5934 25.0433 95.2554 24.519 95.2554 23.843C95.2554 23.167 95.5934 22.6383 96.2694 22.257C96.9541 21.8757 97.8901 21.685 99.0774 21.685ZM99.0774 22.569C98.2281 22.569 97.5651 22.6817 97.0884 22.907C96.6118 23.1323 96.3734 23.4443 96.3734 23.843C96.3734 24.2417 96.6118 24.5537 97.0884 24.779C97.5651 24.9957 98.2281 25.104 99.0774 25.104C99.9268 25.104 100.59 24.9957 101.066 24.779C101.543 24.5537 101.781 24.2417 101.781 23.843C101.781 23.4443 101.543 23.1323 101.066 22.907C100.59 22.6817 99.9268 22.569 99.0774 22.569ZM99.9094 15.354V16.277H97.4394V16.589C97.4394 17.3343 97.6908 18.0277 98.1934 18.669C98.6961 19.3103 99.3634 19.774 100.195 20.06L99.6104 20.944C98.9864 20.7187 98.4404 20.385 97.9724 19.943C97.5044 19.501 97.1448 18.9853 96.8934 18.396C96.6508 19.0547 96.2824 19.6353 95.7884 20.138C95.2944 20.6407 94.7094 21.0177 94.0334 21.269L93.4614 20.372C94.0248 20.164 94.5231 19.8693 94.9564 19.488C95.3898 19.098 95.7234 18.6517 95.9574 18.149C96.1914 17.6463 96.3084 17.1263 96.3084 16.589V16.277H93.7864V15.354H99.9094ZM114.938 20.541V21.451H104.603V20.541H114.938ZM107.047 22.426V24.818H113.794V25.741H105.929V22.426H107.047ZM109.764 14.925C110.578 14.925 111.289 15.016 111.896 15.198C112.511 15.38 112.983 15.6443 113.313 15.991C113.642 16.3377 113.807 16.745 113.807 17.213C113.807 17.681 113.642 18.0883 113.313 18.435C112.983 18.7817 112.511 19.0503 111.896 19.241C111.289 19.423 110.578 19.514 109.764 19.514C108.949 19.514 108.234 19.423 107.619 19.241C107.012 19.0503 106.544 18.7817 106.215 18.435C105.885 18.0883 105.721 17.681 105.721 17.213C105.721 16.745 105.885 16.3377 106.215 15.991C106.544 15.6443 107.012 15.38 107.619 15.198C108.234 15.016 108.949 14.925 109.764 14.925ZM109.764 15.848C108.88 15.848 108.178 15.9693 107.658 16.212C107.138 16.446 106.878 16.7797 106.878 17.213C106.878 17.6463 107.138 17.9887 107.658 18.24C108.178 18.4827 108.88 18.604 109.764 18.604C110.656 18.604 111.358 18.4827 111.87 18.24C112.39 17.9887 112.65 17.6463 112.65 17.213C112.65 16.7797 112.39 16.446 111.87 16.212C111.358 15.9693 110.656 15.848 109.764 15.848ZM127.437 25.039H126.28L125.279 22.361H121.158L120.118 25.039H118.961L122.588 15.575H123.875L127.437 25.039ZM124.915 21.412L123.238 16.953L121.509 21.412H124.915ZM131.89 24.155C132.445 24.155 132.891 23.96 133.229 23.57C133.567 23.18 133.736 22.6687 133.736 22.036C133.736 21.412 133.567 20.905 133.229 20.515C132.891 20.1163 132.445 19.917 131.89 19.917C131.561 19.917 131.253 20.0123 130.967 20.203C130.69 20.3937 130.464 20.6537 130.291 20.983C130.126 21.3037 130.044 21.6547 130.044 22.036C130.044 22.4173 130.126 22.7727 130.291 23.102C130.464 23.4227 130.69 23.6783 130.967 23.869C131.253 24.0597 131.561 24.155 131.89 24.155ZM131.929 18.968C132.484 18.968 132.978 19.098 133.411 19.358C133.853 19.618 134.195 19.982 134.438 20.45C134.689 20.918 134.815 21.4467 134.815 22.036C134.815 22.634 134.689 23.167 134.438 23.635C134.195 24.103 133.853 24.467 133.411 24.727C132.978 24.987 132.484 25.117 131.929 25.117C131.6 25.117 131.253 25.0217 130.889 24.831C130.534 24.6403 130.248 24.389 130.031 24.077V27.808H128.952V18.968H130.031V19.995C130.248 19.6657 130.534 19.4143 130.889 19.241C131.253 19.059 131.6 18.968 131.929 18.968ZM139.109 24.155C139.664 24.155 140.11 23.96 140.448 23.57C140.786 23.18 140.955 22.6687 140.955 22.036C140.955 21.412 140.786 20.905 140.448 20.515C140.11 20.1163 139.664 19.917 139.109 19.917C138.78 19.917 138.472 20.0123 138.186 20.203C137.909 20.3937 137.683 20.6537 137.51 20.983C137.345 21.3037 137.263 21.6547 137.263 22.036C137.263 22.4173 137.345 22.7727 137.51 23.102C137.683 23.4227 137.909 23.6783 138.186 23.869C138.472 24.0597 138.78 24.155 139.109 24.155ZM139.148 18.968C139.703 18.968 140.197 19.098 140.63 19.358C141.072 19.618 141.414 19.982 141.657 20.45C141.908 20.918 142.034 21.4467 142.034 22.036C142.034 22.634 141.908 23.167 141.657 23.635C141.414 24.103 141.072 24.467 140.63 24.727C140.197 24.987 139.703 25.117 139.148 25.117C138.819 25.117 138.472 25.0217 138.108 24.831C137.753 24.6403 137.467 24.389 137.25 24.077V27.808H136.171V18.968H137.25V19.995C137.467 19.6657 137.753 19.4143 138.108 19.241C138.472 19.059 138.819 18.968 139.148 18.968ZM144.287 15.861V25.039H143.208V15.861H144.287ZM148.359 25.091C147.796 25.091 147.293 24.961 146.851 24.701C146.418 24.441 146.075 24.0813 145.824 23.622C145.581 23.154 145.46 22.6253 145.46 22.036C145.46 21.4467 145.581 20.9223 145.824 20.463C146.075 19.995 146.418 19.631 146.851 19.371C147.293 19.111 147.796 18.981 148.359 18.981C149.148 18.981 149.733 19.176 150.114 19.566C150.495 19.956 150.742 20.3113 150.855 20.632C151.028 21.0827 151.115 21.5767 151.115 22.114L151.102 22.504H146.552C146.63 22.9807 146.838 23.375 147.176 23.687C147.514 23.9903 147.908 24.142 148.359 24.142C149.13 24.142 149.707 23.843 150.088 23.245L150.946 23.687C150.773 24.0683 150.461 24.3977 150.01 24.675C149.568 24.9523 149.018 25.091 148.359 25.091ZM150.049 21.568C149.91 20.476 149.347 19.93 148.359 19.93C147.9 19.93 147.501 20.086 147.163 20.398C146.834 20.7013 146.63 21.0957 146.552 21.581L150.049 21.568ZM161.551 14.522V26.001H160.42V14.522H161.551ZM155.493 15.406C156.057 15.406 156.559 15.5707 157.001 15.9C157.452 16.2293 157.799 16.6973 158.041 17.304C158.293 17.902 158.418 18.604 158.418 19.41C158.418 20.2073 158.293 20.9093 158.041 21.516C157.799 22.1227 157.452 22.5907 157.001 22.92C156.559 23.2493 156.057 23.414 155.493 23.414C154.93 23.414 154.423 23.2493 153.972 22.92C153.53 22.5907 153.184 22.1227 152.932 21.516C152.69 20.9093 152.568 20.2073 152.568 19.41C152.568 18.604 152.69 17.902 152.932 17.304C153.184 16.6973 153.53 16.2293 153.972 15.9C154.423 15.5707 154.93 15.406 155.493 15.406ZM155.493 16.42C155.138 16.42 154.822 16.5413 154.544 16.784C154.267 17.0267 154.05 17.3777 153.894 17.837C153.738 18.2877 153.66 18.812 153.66 19.41C153.66 20.008 153.738 20.5367 153.894 20.996C154.05 21.4467 154.267 21.7977 154.544 22.049C154.822 22.2917 155.138 22.413 155.493 22.413C155.849 22.413 156.165 22.2917 156.442 22.049C156.72 21.7977 156.936 21.4467 157.092 20.996C157.248 20.5367 157.326 20.008 157.326 19.41C157.326 18.812 157.248 18.2877 157.092 17.837C156.936 17.3777 156.72 17.0267 156.442 16.784C156.165 16.5413 155.849 16.42 155.493 16.42ZM173.069 14.535V25.975H171.99V14.535H173.069ZM170.781 14.782V25.403H169.715V19.878H168.35C168.307 20.996 168.064 21.88 167.622 22.53C167.189 23.1713 166.617 23.492 165.906 23.492C165.421 23.492 164.992 23.3317 164.619 23.011C164.255 22.6817 163.974 22.2137 163.774 21.607C163.575 21.0003 163.475 20.2897 163.475 19.475C163.475 18.6603 163.575 17.954 163.774 17.356C163.974 16.7493 164.255 16.2857 164.619 15.965C164.992 15.6357 165.421 15.471 165.906 15.471C166.6 15.471 167.163 15.783 167.596 16.407C168.03 17.0223 168.281 17.8717 168.35 18.955H169.715V14.782H170.781ZM165.906 16.524C165.473 16.524 165.131 16.7883 164.879 17.317C164.628 17.837 164.502 18.5563 164.502 19.475C164.502 20.3937 164.628 21.1173 164.879 21.646C165.131 22.1747 165.473 22.439 165.906 22.439C166.348 22.439 166.695 22.179 166.946 21.659C167.198 21.1303 167.323 20.4023 167.323 19.475C167.323 18.5563 167.198 17.837 166.946 17.317C166.695 16.7883 166.348 16.524 165.906 16.524ZM177.022 23.596V20.554C176.536 20.2853 176.159 19.9517 175.891 19.553C175.631 19.1543 175.501 18.6993 175.501 18.188C175.501 17.5987 175.678 17.083 176.034 16.641C176.389 16.1903 176.883 15.8437 177.516 15.601C178.148 15.3583 178.868 15.237 179.674 15.237C180.488 15.237 181.208 15.3583 181.832 15.601C182.464 15.8437 182.958 16.1903 183.314 16.641C183.669 17.083 183.847 17.5987 183.847 18.188C183.847 18.6907 183.717 19.1413 183.457 19.54C183.197 19.9387 182.833 20.268 182.365 20.528V23.596H184.874V24.519H174.513V23.596H177.022ZM179.674 16.121C179.076 16.121 178.543 16.2077 178.075 16.381C177.615 16.5543 177.256 16.797 176.996 17.109C176.736 17.421 176.606 17.7807 176.606 18.188C176.606 18.604 176.736 18.968 176.996 19.28C177.256 19.592 177.615 19.8347 178.075 20.008C178.543 20.1727 179.076 20.255 179.674 20.255C180.272 20.255 180.805 20.1727 181.273 20.008C181.741 19.8347 182.105 19.592 182.365 19.28C182.625 18.968 182.755 18.604 182.755 18.188C182.755 17.7807 182.625 17.421 182.365 17.109C182.105 16.797 181.741 16.5543 181.273 16.381C180.805 16.2077 180.272 16.121 179.674 16.121ZM181.234 23.596V20.957C180.748 21.0783 180.228 21.139 179.674 21.139C179.162 21.139 178.651 21.0827 178.14 20.97V23.596H181.234ZM186.668 23.804C186.867 23.804 187.032 23.869 187.162 23.999C187.292 24.129 187.357 24.298 187.357 24.506C187.357 24.714 187.292 24.883 187.162 25.013C187.032 25.1517 186.867 25.221 186.668 25.221C186.46 25.221 186.287 25.1517 186.148 25.013C186.018 24.883 185.953 24.714 185.953 24.506C185.953 24.298 186.018 24.129 186.148 23.999C186.287 23.869 186.46 23.804 186.668 23.804Z" fill="#E4E4E5"/>
<path d="M105.366 49.5C104.981 50.1667 104.019 50.1667 103.634 49.5L94.9737 34.5C94.5888 33.8333 95.0699 33 95.8397 33L113.16 33C113.93 33 114.411 33.8333 114.026 34.5L105.366 49.5Z" fill="#346FFA"/>
</svg>
