<svg width="217" height="51" viewBox="0 0 217 51" fill="none" xmlns="http://www.w3.org/2000/svg">
<rect x="0.5" width="216" height="40" rx="12" fill="#346FFA"/>
<path d="M25.5428 20.606V22.647C26.7908 22.569 27.8352 22.465 28.6758 22.335L28.7668 23.167C27.6402 23.375 26.4875 23.5093 25.3088 23.57C24.1388 23.6307 22.8345 23.661 21.3958 23.661L21.2528 22.725C22.5962 22.725 23.6492 22.712 24.4118 22.686V20.606H25.5428ZM24.4118 16.004V14.626H25.5428V16.004H28.1428V16.927H25.5428C25.5688 17.629 25.8375 18.2573 26.3488 18.812C26.8688 19.3667 27.5492 19.761 28.3898 19.995L27.8828 20.866C27.2068 20.6667 26.6175 20.3633 26.1148 19.956C25.6208 19.5487 25.2438 19.0633 24.9838 18.5C24.7325 19.0893 24.3598 19.6007 23.8658 20.034C23.3718 20.4587 22.7825 20.7793 22.0978 20.996L21.5778 20.112C22.4185 19.8607 23.0945 19.449 23.6058 18.877C24.1172 18.305 24.3858 17.655 24.4118 16.927H21.8508V16.004H24.4118ZM30.5348 14.522V26.001H29.4168V14.522H30.5348ZM41.4161 15.224V16.121C41.4161 16.797 41.3988 17.408 41.3641 17.954C41.3381 18.4913 41.2601 19.098 41.1301 19.774H42.7291V20.697H32.3681V19.774H39.9991C40.1378 19.0893 40.2245 18.4827 40.2591 17.954C40.2938 17.4167 40.3111 16.81 40.3111 16.134H33.6941V15.224H41.4161ZM34.8511 21.932V24.818H41.7541V25.741H33.7201V21.932H34.8511ZM50.9385 23.661V21.568H47.6235V17.98H54.3185V16.277H47.5975V15.367H55.4365V18.877H48.7285V20.658H55.6965V21.568H52.0565V23.661H56.6975V24.584H46.3365V23.661H50.9385ZM66.4738 15.718V16.901C66.4738 17.9063 66.4478 18.812 66.3958 19.618C66.3525 20.424 66.2355 21.3687 66.0448 22.452L64.9138 22.348C65.1132 21.3253 65.2345 20.4153 65.2778 19.618C65.3298 18.812 65.3558 17.9063 65.3558 16.901V16.641H58.6218V15.718H66.4738ZM67.8518 23.401V24.337H57.5038V23.401H67.8518ZM78.0571 14.548V22.881H76.9261V14.548H78.0571ZM71.8041 22.036V24.818H78.3951V25.728H70.6861V22.036H71.8041ZM71.9081 15.328C72.4715 15.328 72.9828 15.4493 73.4421 15.692C73.9015 15.9347 74.2611 16.2727 74.5211 16.706C74.7811 17.1307 74.9111 17.616 74.9111 18.162C74.9111 18.6993 74.7811 19.1847 74.5211 19.618C74.2611 20.0427 73.9015 20.3763 73.4421 20.619C72.9828 20.8617 72.4715 20.983 71.9081 20.983C71.3448 20.983 70.8335 20.8617 70.3741 20.619C69.9235 20.3763 69.5638 20.0427 69.2951 19.618C69.0351 19.1847 68.9051 18.6993 68.9051 18.162C68.9051 17.616 69.0351 17.1307 69.2951 16.706C69.5638 16.2727 69.9235 15.9347 70.3741 15.692C70.8335 15.4493 71.3448 15.328 71.9081 15.328ZM71.9081 16.303C71.3621 16.303 70.9071 16.4763 70.5431 16.823C70.1878 17.1697 70.0101 17.616 70.0101 18.162C70.0101 18.6993 70.1878 19.1413 70.5431 19.488C70.9071 19.826 71.3621 19.995 71.9081 19.995C72.4541 19.995 72.9091 19.826 73.2731 19.488C73.6371 19.1413 73.8191 18.6993 73.8191 18.162C73.8191 17.616 73.6371 17.1697 73.2731 16.823C72.9091 16.4763 72.4541 16.303 71.9081 16.303ZM88.9835 20.567V18.617H87.1765C86.5959 20.6797 85.2872 22.3177 83.2505 23.531L82.6005 22.712C84.9405 21.3167 86.2102 19.3797 86.4095 16.901H83.1205V15.978H87.5145C87.5145 16.6193 87.4669 17.1957 87.3715 17.707H88.9835V14.834H90.0495V25.403H88.9835V21.477H86.9815V20.567H88.9835ZM92.3635 14.535V25.975H91.2975V14.535H92.3635ZM102.101 17.486V14.548H103.232V21.347H102.101V18.409H99.9039V17.486H102.101ZM99.4489 21.685C100.636 21.685 101.568 21.8757 102.244 22.257C102.929 22.6383 103.271 23.167 103.271 23.843C103.271 24.519 102.929 25.0433 102.244 25.416C101.568 25.7887 100.636 25.975 99.4489 25.975C98.2529 25.975 97.3169 25.7887 96.6409 25.416C95.9649 25.0433 95.6269 24.519 95.6269 23.843C95.6269 23.167 95.9649 22.6383 96.6409 22.257C97.3255 21.8757 98.2615 21.685 99.4489 21.685ZM99.4489 22.569C98.5995 22.569 97.9365 22.6817 97.4599 22.907C96.9832 23.1323 96.7449 23.4443 96.7449 23.843C96.7449 24.2417 96.9832 24.5537 97.4599 24.779C97.9365 24.9957 98.5995 25.104 99.4489 25.104C100.298 25.104 100.961 24.9957 101.438 24.779C101.915 24.5537 102.153 24.2417 102.153 23.843C102.153 23.4443 101.915 23.1323 101.438 22.907C100.961 22.6817 100.298 22.569 99.4489 22.569ZM100.281 15.354V16.277H97.8109V16.589C97.8109 17.3343 98.0622 18.0277 98.5649 18.669C99.0675 19.3103 99.7349 19.774 100.567 20.06L99.9819 20.944C99.3579 20.7187 98.8119 20.385 98.3439 19.943C97.8759 19.501 97.5162 18.9853 97.2649 18.396C97.0222 19.0547 96.6539 19.6353 96.1599 20.138C95.6659 20.6407 95.0809 21.0177 94.4049 21.269L93.8329 20.372C94.3962 20.164 94.8945 19.8693 95.3279 19.488C95.7612 19.098 96.0949 18.6517 96.3289 18.149C96.5629 17.6463 96.6799 17.1263 96.6799 16.589V16.277H94.1579V15.354H100.281ZM115.309 20.541V21.451H104.974V20.541H115.309ZM107.418 22.426V24.818H114.165V25.741H106.3V22.426H107.418ZM110.135 14.925C110.95 14.925 111.66 15.016 112.267 15.198C112.882 15.38 113.355 15.6443 113.684 15.991C114.013 16.3377 114.178 16.745 114.178 17.213C114.178 17.681 114.013 18.0883 113.684 18.435C113.355 18.7817 112.882 19.0503 112.267 19.241C111.66 19.423 110.95 19.514 110.135 19.514C109.32 19.514 108.605 19.423 107.99 19.241C107.383 19.0503 106.915 18.7817 106.586 18.435C106.257 18.0883 106.092 17.681 106.092 17.213C106.092 16.745 106.257 16.3377 106.586 15.991C106.915 15.6443 107.383 15.38 107.99 15.198C108.605 15.016 109.32 14.925 110.135 14.925ZM110.135 15.848C109.251 15.848 108.549 15.9693 108.029 16.212C107.509 16.446 107.249 16.7797 107.249 17.213C107.249 17.6463 107.509 17.9887 108.029 18.24C108.549 18.4827 109.251 18.604 110.135 18.604C111.028 18.604 111.73 18.4827 112.241 18.24C112.761 17.9887 113.021 17.6463 113.021 17.213C113.021 16.7797 112.761 16.446 112.241 16.212C111.73 15.9693 111.028 15.848 110.135 15.848ZM128.589 20.892C128.589 21.7673 128.398 22.5213 128.017 23.154C127.635 23.7867 127.107 24.272 126.431 24.61C125.763 24.948 125.001 25.1257 124.143 25.143C123.241 25.143 122.435 24.9393 121.725 24.532C121.023 24.116 120.472 23.544 120.074 22.816C119.675 22.0793 119.476 21.243 119.476 20.307C119.476 19.371 119.675 18.539 120.074 17.811C120.472 17.0743 121.023 16.5023 121.725 16.095C122.435 15.6877 123.241 15.484 124.143 15.484C125.018 15.484 125.746 15.653 126.327 15.991C126.916 16.329 127.328 16.6627 127.562 16.992C127.804 17.3127 127.986 17.5727 128.108 17.772L127.159 18.227C127.063 18.071 126.925 17.8673 126.743 17.616C126.569 17.3647 126.257 17.109 125.807 16.849C125.365 16.5803 124.81 16.446 124.143 16.446C123.449 16.446 122.83 16.6107 122.284 16.94C121.746 17.2607 121.326 17.7157 121.023 18.305C120.719 18.8943 120.568 19.5617 120.568 20.307C120.568 21.061 120.719 21.7327 121.023 22.322C121.326 22.9027 121.746 23.3577 122.284 23.687C122.83 24.0163 123.449 24.181 124.143 24.181C125.165 24.1463 125.984 23.8647 126.6 23.336C127.224 22.8073 127.54 22.0447 127.549 21.048H124.312V20.112H128.602L128.589 20.892ZM132.684 24.155C133.222 24.155 133.659 23.96 133.997 23.57C134.335 23.18 134.504 22.673 134.504 22.049C134.504 21.425 134.335 20.918 133.997 20.528C133.659 20.1293 133.222 19.93 132.684 19.93C132.147 19.93 131.709 20.125 131.371 20.515C131.042 20.905 130.877 21.4163 130.877 22.049C130.877 22.6817 131.042 23.193 131.371 23.583C131.709 23.9643 132.147 24.155 132.684 24.155ZM132.684 18.968C133.248 18.968 133.75 19.1023 134.192 19.371C134.634 19.631 134.977 19.995 135.219 20.463C135.471 20.931 135.596 21.4597 135.596 22.049C135.596 22.6383 135.471 23.167 135.219 23.635C134.977 24.0943 134.634 24.4583 134.192 24.727C133.75 24.987 133.248 25.117 132.684 25.117C132.13 25.117 131.631 24.987 131.189 24.727C130.756 24.4583 130.414 24.0943 130.162 23.635C129.92 23.167 129.798 22.6383 129.798 22.049C129.798 21.4597 129.92 20.931 130.162 20.463C130.414 19.995 130.756 19.631 131.189 19.371C131.631 19.1023 132.13 18.968 132.684 18.968ZM139.51 24.155C140.047 24.155 140.485 23.96 140.823 23.57C141.161 23.18 141.33 22.673 141.33 22.049C141.33 21.425 141.161 20.918 140.823 20.528C140.485 20.1293 140.047 19.93 139.51 19.93C138.972 19.93 138.535 20.125 138.197 20.515C137.867 20.905 137.703 21.4163 137.703 22.049C137.703 22.6817 137.867 23.193 138.197 23.583C138.535 23.9643 138.972 24.155 139.51 24.155ZM139.51 18.968C140.073 18.968 140.576 19.1023 141.018 19.371C141.46 19.631 141.802 19.995 142.045 20.463C142.296 20.931 142.422 21.4597 142.422 22.049C142.422 22.6383 142.296 23.167 142.045 23.635C141.802 24.0943 141.46 24.4583 141.018 24.727C140.576 24.987 140.073 25.117 139.51 25.117C138.955 25.117 138.457 24.987 138.015 24.727C137.581 24.4583 137.239 24.0943 136.988 23.635C136.745 23.167 136.624 22.6383 136.624 22.049C136.624 21.4597 136.745 20.931 136.988 20.463C137.239 19.995 137.581 19.631 138.015 19.371C138.457 19.1023 138.955 18.968 139.51 18.968ZM146.361 24.142C146.699 24.142 147.007 24.0467 147.284 23.856C147.57 23.6653 147.791 23.4097 147.947 23.089C148.112 22.7683 148.194 22.4173 148.194 22.036C148.194 21.6633 148.112 21.3167 147.947 20.996C147.783 20.6667 147.562 20.4067 147.284 20.216C147.007 20.0253 146.699 19.93 146.361 19.93C145.824 19.93 145.382 20.1293 145.035 20.528C144.697 20.918 144.528 21.4207 144.528 22.036C144.528 22.66 144.697 23.167 145.035 23.557C145.373 23.947 145.815 24.142 146.361 24.142ZM149.286 24.649C149.286 25.2383 149.161 25.7713 148.909 26.248C148.667 26.7333 148.316 27.1147 147.856 27.392C147.406 27.6693 146.886 27.808 146.296 27.808C145.785 27.808 145.313 27.691 144.879 27.457C144.446 27.223 144.082 26.872 143.787 26.404L144.671 25.845C145.079 26.5037 145.62 26.833 146.296 26.833C146.877 26.833 147.336 26.625 147.674 26.209C148.021 25.8017 148.194 25.2903 148.194 24.675V24.025C147.978 24.3457 147.696 24.6057 147.349 24.805C147.003 25.0043 146.66 25.104 146.322 25.104C145.768 25.104 145.274 24.974 144.84 24.714C144.407 24.454 144.065 24.0943 143.813 23.635C143.571 23.167 143.449 22.6383 143.449 22.049C143.449 21.4597 143.571 20.931 143.813 20.463C144.065 19.995 144.407 19.631 144.84 19.371C145.274 19.1023 145.768 18.968 146.322 18.968C146.695 18.968 147.05 19.0633 147.388 19.254C147.726 19.436 147.995 19.6873 148.194 20.008V18.968H149.286V24.649ZM151.916 15.861V25.039H150.837V15.861H151.916ZM155.988 25.091C155.424 25.091 154.922 24.961 154.48 24.701C154.046 24.441 153.704 24.0813 153.453 23.622C153.21 23.154 153.089 22.6253 153.089 22.036C153.089 21.4467 153.21 20.9223 153.453 20.463C153.704 19.995 154.046 19.631 154.48 19.371C154.922 19.111 155.424 18.981 155.988 18.981C156.776 18.981 157.361 19.176 157.743 19.566C158.124 19.956 158.371 20.3113 158.484 20.632C158.657 21.0827 158.744 21.5767 158.744 22.114L158.731 22.504H154.181C154.259 22.9807 154.467 23.375 154.805 23.687C155.143 23.9903 155.537 24.142 155.988 24.142C156.759 24.142 157.335 23.843 157.717 23.245L158.575 23.687C158.401 24.0683 158.089 24.3977 157.639 24.675C157.197 24.9523 156.646 25.091 155.988 25.091ZM157.678 21.568C157.539 20.476 156.976 19.93 155.988 19.93C155.528 19.93 155.13 20.086 154.792 20.398C154.462 20.7013 154.259 21.0957 154.181 21.581L157.678 21.568ZM169.18 14.522V26.001H168.049V14.522H169.18ZM163.122 15.406C163.685 15.406 164.188 15.5707 164.63 15.9C165.08 16.2293 165.427 16.6973 165.67 17.304C165.921 17.902 166.047 18.604 166.047 19.41C166.047 20.2073 165.921 20.9093 165.67 21.516C165.427 22.1227 165.08 22.5907 164.63 22.92C164.188 23.2493 163.685 23.414 163.122 23.414C162.558 23.414 162.051 23.2493 161.601 22.92C161.159 22.5907 160.812 22.1227 160.561 21.516C160.318 20.9093 160.197 20.2073 160.197 19.41C160.197 18.604 160.318 17.902 160.561 17.304C160.812 16.6973 161.159 16.2293 161.601 15.9C162.051 15.5707 162.558 15.406 163.122 15.406ZM163.122 16.42C162.766 16.42 162.45 16.5413 162.173 16.784C161.895 17.0267 161.679 17.3777 161.523 17.837C161.367 18.2877 161.289 18.812 161.289 19.41C161.289 20.008 161.367 20.5367 161.523 20.996C161.679 21.4467 161.895 21.7977 162.173 22.049C162.45 22.2917 162.766 22.413 163.122 22.413C163.477 22.413 163.793 22.2917 164.071 22.049C164.348 21.7977 164.565 21.4467 164.721 20.996C164.877 20.5367 164.955 20.008 164.955 19.41C164.955 18.812 164.877 18.2877 164.721 17.837C164.565 17.3777 164.348 17.0267 164.071 16.784C163.793 16.5413 163.477 16.42 163.122 16.42ZM180.698 14.535V25.975H179.619V14.535H180.698ZM178.41 14.782V25.403H177.344V19.878H175.979C175.936 20.996 175.693 21.88 175.251 22.53C174.818 23.1713 174.246 23.492 173.535 23.492C173.05 23.492 172.621 23.3317 172.248 23.011C171.884 22.6817 171.602 22.2137 171.403 21.607C171.204 21.0003 171.104 20.2897 171.104 19.475C171.104 18.6603 171.204 17.954 171.403 17.356C171.602 16.7493 171.884 16.2857 172.248 15.965C172.621 15.6357 173.05 15.471 173.535 15.471C174.228 15.471 174.792 15.783 175.225 16.407C175.658 17.0223 175.91 17.8717 175.979 18.955H177.344V14.782H178.41ZM173.535 16.524C173.102 16.524 172.759 16.7883 172.508 17.317C172.257 17.837 172.131 18.5563 172.131 19.475C172.131 20.3937 172.257 21.1173 172.508 21.646C172.759 22.1747 173.102 22.439 173.535 22.439C173.977 22.439 174.324 22.179 174.575 21.659C174.826 21.1303 174.952 20.4023 174.952 19.475C174.952 18.5563 174.826 17.837 174.575 17.317C174.324 16.7883 173.977 16.524 173.535 16.524ZM184.65 23.596V20.554C184.165 20.2853 183.788 19.9517 183.519 19.553C183.259 19.1543 183.129 18.6993 183.129 18.188C183.129 17.5987 183.307 17.083 183.662 16.641C184.018 16.1903 184.512 15.8437 185.144 15.601C185.777 15.3583 186.496 15.237 187.302 15.237C188.117 15.237 188.836 15.3583 189.46 15.601C190.093 15.8437 190.587 16.1903 190.942 16.641C191.298 17.083 191.475 17.5987 191.475 18.188C191.475 18.6907 191.345 19.1413 191.085 19.54C190.825 19.9387 190.461 20.268 189.993 20.528V23.596H192.502V24.519H182.141V23.596H184.65ZM187.302 16.121C186.704 16.121 186.171 16.2077 185.703 16.381C185.244 16.5543 184.884 16.797 184.624 17.109C184.364 17.421 184.234 17.7807 184.234 18.188C184.234 18.604 184.364 18.968 184.624 19.28C184.884 19.592 185.244 19.8347 185.703 20.008C186.171 20.1727 186.704 20.255 187.302 20.255C187.9 20.255 188.433 20.1727 188.901 20.008C189.369 19.8347 189.733 19.592 189.993 19.28C190.253 18.968 190.383 18.604 190.383 18.188C190.383 17.7807 190.253 17.421 189.993 17.109C189.733 16.797 189.369 16.5543 188.901 16.381C188.433 16.2077 187.9 16.121 187.302 16.121ZM188.862 23.596V20.957C188.377 21.0783 187.857 21.139 187.302 21.139C186.791 21.139 186.28 21.0827 185.768 20.97V23.596H188.862ZM194.297 23.804C194.496 23.804 194.661 23.869 194.791 23.999C194.921 24.129 194.986 24.298 194.986 24.506C194.986 24.714 194.921 24.883 194.791 25.013C194.661 25.1517 194.496 25.221 194.297 25.221C194.089 25.221 193.915 25.1517 193.777 25.013C193.647 24.883 193.582 24.714 193.582 24.506C193.582 24.298 193.647 24.129 193.777 23.999C193.915 23.869 194.089 23.804 194.297 23.804Z" fill="#E4E4E5"/>
<path d="M109.366 49.5C108.981 50.1667 108.019 50.1667 107.634 49.5L98.9737 34.5C98.5888 33.8333 99.0699 33 99.8397 33L117.16 33C117.93 33 118.411 33.8333 118.026 34.5L109.366 49.5Z" fill="#346FFA"/>
</svg>
