<svg width="194" height="194" viewBox="0 0 194 194" fill="none" xmlns="http://www.w3.org/2000/svg">
<path d="M77.3419 113.453L80.1147 134.269C80.3293 135.88 79.9264 137.352 78.9061 138.686C77.8858 140.02 76.5703 140.794 74.9595 141.009L51.1697 144.178C49.5589 144.393 48.0866 143.99 46.7527 142.969C45.4188 141.949 44.6445 140.634 44.4299 139.023L41.6571 118.207C41.4425 116.596 41.8454 115.124 42.8657 113.79C43.886 112.456 45.2015 111.682 46.8123 111.467L70.6021 108.298C72.2129 108.083 73.6852 108.486 75.0191 109.507C76.353 110.527 77.1273 111.842 77.3419 113.453ZM67.0576 14.9486L73.9626 86.6648C74.1152 88.2838 73.6659 89.7624 72.6146 91.1004C71.5633 92.4384 70.2323 93.2147 68.6215 93.4293L44.8316 96.5983C43.2209 96.8129 41.733 96.4121 40.3682 95.3959C39.0033 94.3797 38.1826 93.0704 37.9061 91.4678L25.797 20.4449C25.5205 18.8424 25.8769 17.3762 26.8662 16.0464C27.8556 14.7167 29.1556 13.9445 30.7664 13.7299L60.5037 9.76865C62.1145 9.55408 63.5713 9.95901 64.8742 10.9834C66.1772 12.0079 66.9049 13.3296 67.0576 14.9486Z" fill="#9D9DA4"/>
<path d="M128.25 156.914L123.153 174.953C122.487 177.108 120.247 178.361 118.073 177.804L94.2765 171.08C93.2427 170.758 92.3717 170.052 91.8425 169.107C91.3132 168.162 91.1659 167.051 91.4308 166.001L96.5289 147.957C97.195 145.802 99.4336 144.555 101.613 145.113L125.431 151.843C127.586 152.509 128.839 154.749 128.28 156.929L128.25 156.914ZM178.05 100.47C176.284 106.751 172.781 112.406 167.943 116.783L168.061 116.668C165.917 118.431 163.542 119.891 161 121.006L160.935 121.033C158.814 122.046 156.556 122.939 154.233 123.677L154.009 123.74C152.3 124.221 149.95 124.824 146.96 125.549C143.794 126.331 140.862 127.863 138.411 130.015L138.342 130.075C136.32 131.564 134.736 133.571 133.758 135.884L133.735 135.946C133.382 137.124 132.638 138.146 131.625 138.842L131.633 138.833C131.198 139.206 130.679 139.469 130.121 139.6C129.563 139.731 128.981 139.725 128.426 139.584L104.608 132.855C104.069 132.662 103.594 132.323 103.237 131.876C102.88 131.429 102.655 130.891 102.586 130.323L102.587 130.3C102.235 128.986 102.237 127.603 102.594 126.29L103.857 121.818C105.617 116.046 109.488 111.15 114.699 108.106L114.692 108.11C119.806 104.706 125.58 102.417 131.638 101.393L131.922 101.359C135.408 100.99 138.779 99.9014 141.822 98.161L141.828 98.1572C144.162 96.5186 145.808 94.0744 146.448 91.2952L146.44 91.3216C146.777 89.7926 146.725 88.2034 146.288 86.6999C145.851 85.1964 145.043 83.8267 143.939 82.7164L143.898 82.6818C141.363 79.6473 137.941 77.4832 134.112 76.4936L134.128 76.4981C130.36 75.2707 126.306 75.2262 122.511 76.3704L122.598 76.3437C117.745 78.5779 113.161 81.3573 108.936 84.6284L108.751 84.7763C108.26 85.1618 107.686 85.4276 107.074 85.5524C106.462 85.6772 105.83 85.6576 105.227 85.4953C104.344 85.2144 103.557 84.6911 102.956 83.9849L102.969 84L90.203 67.0019C89.5586 66.1842 89.2571 65.1482 89.362 64.1124L89.3627 64.0897C89.4701 63.0764 89.9488 62.1388 90.7065 61.4575L90.6914 61.4703C103.946 48.0752 123.563 42.2043 142.67 47.6029C143.213 47.7564 143.752 47.9183 144.287 48.0884L144.208 48.066C149.774 49.6738 154.988 52.3141 159.578 55.8493L159.306 55.6582C164.011 59.1401 168.142 63.3369 171.549 68.0961L171.467 67.9815C174.758 72.5999 177.101 77.8249 178.36 83.3544L178.404 83.6013C179.679 88.8595 179.656 94.7055 178.031 100.476L178.05 100.47Z" fill="#C3C3C6"/>
</svg>
